<svg width="37" height="37" viewBox="0 0 37 37" fill="none" xmlns="http://www.w3.org/2000/svg">
<path d="M1.84595 1.84595H2.34132C3.21594 1.84595 3.65401 1.84595 4.01074 2.00374C4.32525 2.14287 4.59415 2.36685 4.78806 2.65088C5.00764 2.9725 5.08692 3.40197 5.24519 4.25922L9.23016 25.8445L28.4691 25.8444C29.3057 25.8444 29.7253 25.8444 30.0719 25.6966C30.378 25.566 30.642 25.3545 30.8381 25.0856C31.0598 24.7815 31.1537 24.3744 31.3414 23.561L31.3428 23.5552L34.2397 11.0022L34.2403 10.9996C34.525 9.76572 34.6678 9.1473 34.511 8.66221C34.3735 8.23659 34.0842 7.87573 33.7004 7.64604C33.2626 7.38405 32.63 7.38405 31.3617 7.38405H6.46103M29.5365 35.0746C28.5169 35.0746 27.6904 34.2481 27.6904 33.2285C27.6904 32.209 28.5169 31.3825 29.5365 31.3825C30.556 31.3825 31.3825 32.209 31.3825 33.2285C31.3825 34.2481 30.556 35.0746 29.5365 35.0746ZM11.0761 35.0746C10.0566 35.0746 9.23009 34.2481 9.23009 33.2285C9.23009 32.209 10.0566 31.3825 11.0761 31.3825C12.0957 31.3825 12.9222 32.209 12.9222 33.2285C12.9222 34.2481 12.0957 35.0746 11.0761 35.0746Z" stroke="#003151" stroke-width="3.69207" stroke-linecap="round" stroke-linejoin="round"/>
</svg>
