<svg width="42" height="45" viewBox="0 0 42 45" fill="none" xmlns="http://www.w3.org/2000/svg">
<path d="M36.4951 22.0234C36.4951 17.2517 34.9457 13.2034 31.8466 9.87872C28.7491 6.55563 24.9763 4.89409 20.5285 4.89409V0C23.3797 0 26.0507 0.580755 28.5414 1.74229C31.0308 2.90545 33.1975 4.47645 35.0422 6.4553C36.8851 8.43251 38.3487 10.7572 39.4331 13.4294C40.5156 16.0999 41.057 18.9646 41.057 22.0234H36.4951ZM27.3713 22.0234C27.3713 19.9842 26.7061 18.2509 25.3754 16.8234C24.0449 15.396 22.4293 14.6823 20.5285 14.6823V9.78818C23.6838 9.78818 26.3737 10.9807 28.5984 13.3658C30.8216 15.7524 31.9332 18.6383 31.9332 22.0234H27.3713ZM38.662 44.1693C33.758 44.1693 28.9779 42.9962 24.3217 40.6504C19.664 38.3062 15.5393 35.2065 11.9476 31.3517C8.35435 27.4983 5.46515 23.0733 3.28 18.0763C1.09332 13.0811 0 7.95289 0 2.69175C0 1.95763 0.228094 1.34587 0.684284 0.856463C1.14048 0.367054 1.71071 0.122352 2.39499 0.122352H11.6328C12.165 0.122352 12.6402 0.305878 13.0584 0.672935C13.4766 1.03999 13.7237 1.50902 13.7997 2.07999L15.2823 10.6446C15.3583 11.2156 15.3492 11.7352 15.255 12.2034C15.1592 12.6732 14.9402 13.0917 14.5981 13.4587L9.12377 19.454C10.7204 22.3906 12.7163 25.1435 15.1113 27.7129C17.5063 30.2823 20.1483 32.5049 23.0375 34.3811L28.3978 28.6305C28.7399 28.2635 29.1869 27.9877 29.7391 27.8034C30.2894 27.6206 30.8308 27.57 31.363 27.6517L39.2322 29.3647C39.7645 29.487 40.2015 29.7618 40.5439 30.1893C40.886 30.6183 41.057 31.1182 41.057 31.6893V41.5999C41.057 42.334 40.829 42.9458 40.3728 43.4352C39.9164 43.9246 39.3462 44.1693 38.662 44.1693Z" fill="white"/>
</svg>
