<svg width="25" height="27" viewBox="0 0 25 27" fill="none" xmlns="http://www.w3.org/2000/svg">
<path d="M1 1.00001H1.34811C1.96272 1.00001 2.27057 1.00001 2.52125 1.11873C2.74226 1.2234 2.93123 1.39192 3.0675 1.60561C3.2218 1.84759 3.27751 2.1707 3.38873 2.81566L6.18906 19.0556L19.7087 19.0556C20.2967 19.0556 20.5915 19.0556 20.835 18.9443C21.0502 18.8461 21.2357 18.687 21.3735 18.4846C21.5293 18.2559 21.5953 17.9496 21.7272 17.3376L21.7282 17.3333L23.7639 7.88884L23.7643 7.88686C23.9644 6.95856 24.0647 6.49328 23.9546 6.12832C23.8579 5.80809 23.6546 5.5366 23.3849 5.36379C23.0772 5.16667 22.6327 5.16667 21.7414 5.16667H4.24313M20.4588 26C19.7423 26 19.1615 25.3782 19.1615 24.6111C19.1615 23.8441 19.7423 23.2222 20.4588 23.2222C21.1753 23.2222 21.7561 23.8441 21.7561 24.6111C21.7561 25.3782 21.1753 26 20.4588 26ZM7.48627 26C6.76981 26 6.18901 25.3782 6.18901 24.6111C6.18901 23.8441 6.76981 23.2222 7.48627 23.2222C8.20272 23.2222 8.78352 23.8441 8.78352 24.6111C8.78352 25.3782 8.20272 26 7.48627 26Z" stroke="white" stroke-width="2" stroke-linecap="round" stroke-linejoin="round"/>
</svg>
