<svg width="89" height="89" viewBox="0 0 89 89" fill="none" xmlns="http://www.w3.org/2000/svg">
<path d="M3.6661 19.038L1.90836 38.3731C1.64802 41.2367 1.51675 42.6805 1.75506 44.051C1.96799 45.2756 2.39325 46.454 3.01362 47.531C3.71061 48.7411 4.74082 49.7713 6.78948 51.82L34.2549 79.2854C38.4316 83.4621 40.521 85.5515 42.9368 86.3365C45.0685 87.0291 47.3684 87.0306 49.5001 86.338C51.9235 85.5506 54.0293 83.4473 58.2325 79.2441L79.2464 58.2302C83.4496 54.027 85.5477 51.9264 86.3351 49.503C87.0278 47.3713 87.0236 45.0739 86.331 42.9422C85.5436 40.5189 83.4485 38.4186 79.2454 34.2155L51.8477 6.81782C49.7804 4.75048 48.7463 3.71667 47.5308 3.01651C46.4537 2.39613 45.2753 1.96907 44.0507 1.75614C42.6687 1.51583 41.2121 1.64795 38.3005 1.91265L19.0377 3.66381C14.024 4.1196 11.5156 4.3485 9.55386 5.43942C7.82422 6.40124 6.39835 7.82711 5.43653 9.55674C4.35105 11.5087 4.12464 13.9994 3.67341 18.9632L3.6661 19.038Z" stroke="black" stroke-width="3.26183" stroke-linecap="round" stroke-linejoin="round"/>
<path d="M30.0127 30.0122C32.0852 27.9398 32.0852 24.5797 30.0127 22.5073C27.9403 20.4348 24.5778 20.4348 22.5054 22.5073C20.4329 24.5797 20.4309 27.939 22.5034 30.0114C24.5758 32.0839 27.9403 32.0847 30.0127 30.0122Z" stroke="black" stroke-width="3.26183" stroke-linecap="round" stroke-linejoin="round"/>
</svg>
