<?xml version="1.0" encoding="UTF-8" standalone="no"?>
<svg
   width="25"
   height="22.00054"
   viewBox="0 0 25 22.00054"
   fill="none"
   version="1.1"
   id="svg1"
   xmlns="http://www.w3.org/2000/svg"
   xmlns:svg="http://www.w3.org/2000/svg">
  <defs
     id="defs1" />
  <path
     d="M 6.7832029,0.00168065 C 5.0779169,-0.03556022 3.3686329,0.54578907 2.0878909,1.7770712 0.80714787,3.0083535 -1.25e-7,4.8768166 -1.25e-7,7.2145712 c 0,4.2692208 3.125416025,7.8789848 6.093750025,10.4667978 2.968335,2.587812 5.9277341,4.197265 5.9277341,4.197265 a 1.0001,1.0001 0 0 0 0.957032,0 c 0,0 2.9594,-1.609453 5.927734,-4.197265 C 21.874585,15.093556 25,11.483792 25,7.2145712 25,3.0586333 22.338884,0.4905379 19.347656,0.06808689 16.855283,-0.283911 14.198412,0.81805264 12.519531,3.1051963 11.091191,1.1433816 8.9399609,0.048781 6.7832029,0.00168065 Z"
     style="baseline-shift:baseline;display:inline;overflow:visible;vector-effect:none;fill:#ff0000;stroke-linecap:round;stroke-linejoin:round;enable-background:accumulate;stop-color:#000000;stop-opacity:1"
     id="path6" />
</svg>
