<svg width="51" height="51" viewBox="0 0 51 51" fill="none" xmlns="http://www.w3.org/2000/svg">
<rect x="0.6375" y="0.6375" width="49.725" height="49.725" rx="24.8625" stroke="white" stroke-opacity="0.22" stroke-width="1.275"/>
<path d="M25.5 15.0542C28.8795 15.0542 29.3404 15.0542 30.7229 15.0542C31.9518 15.0542 32.5663 15.3614 33.0271 15.5151C33.6416 15.8223 34.1024 15.9759 34.5633 16.4367C35.0241 16.8976 35.3313 17.3584 35.4849 17.9729C35.6386 18.4337 35.7922 19.0482 35.9458 20.2771C35.9458 21.6596 35.9458 21.9669 35.9458 25.5C35.9458 29.0331 35.9458 29.3404 35.9458 30.7229C35.9458 31.9518 35.6386 32.5663 35.4849 33.0271C35.1777 33.6416 35.0241 34.1024 34.5633 34.5633C34.1024 35.0241 33.6416 35.3313 33.0271 35.4849C32.5663 35.6386 31.9518 35.7922 30.7229 35.9458C29.3404 35.9458 29.0331 35.9458 25.5 35.9458C21.9669 35.9458 21.6596 35.9458 20.2771 35.9458C19.0482 35.9458 18.4337 35.6386 17.9729 35.4849C17.3584 35.1777 16.8976 35.0241 16.4367 34.5633C15.9759 34.1024 15.6687 33.6416 15.5151 33.0271C15.3614 32.5663 15.2078 31.9518 15.0542 30.7229C15.0542 29.3404 15.0542 29.0331 15.0542 25.5C15.0542 21.9669 15.0542 21.6596 15.0542 20.2771C15.0542 19.0482 15.3614 18.4337 15.5151 17.9729C15.8223 17.3584 15.9759 16.8976 16.4367 16.4367C16.8976 15.9759 17.3584 15.6687 17.9729 15.5151C18.4337 15.3614 19.0482 15.2078 20.2771 15.0542C21.6596 15.0542 22.1205 15.0542 25.5 15.0542ZM25.5 12.75C21.9669 12.75 21.6596 12.75 20.2771 12.75C18.8946 12.75 17.9729 13.0572 17.2048 13.3645C16.4367 13.6717 15.6687 14.1325 14.9006 14.9006C14.1325 15.6687 13.8253 16.2831 13.3645 17.2048C13.0572 17.9729 12.9036 18.8946 12.75 20.2771C12.75 21.6596 12.75 22.1205 12.75 25.5C12.75 29.0331 12.75 29.3404 12.75 30.7229C12.75 32.1054 13.0572 33.0271 13.3645 33.7952C13.6717 34.5633 14.1325 35.3313 14.9006 36.0994C15.6687 36.8675 16.2831 37.1747 17.2048 37.6355C17.9729 37.9428 18.8946 38.0964 20.2771 38.25C21.6596 38.25 22.1205 38.25 25.5 38.25C28.8795 38.25 29.3404 38.25 30.7229 38.25C32.1054 38.25 33.0271 37.9428 33.7952 37.6355C34.5633 37.3283 35.3313 36.8675 36.0994 36.0994C36.8675 35.3313 37.1747 34.7169 37.6355 33.7952C37.9428 33.0271 38.0964 32.1054 38.25 30.7229C38.25 29.3404 38.25 28.8795 38.25 25.5C38.25 22.1205 38.25 21.6596 38.25 20.2771C38.25 18.8946 37.9428 17.9729 37.6355 17.2048C37.3283 16.4367 36.8675 15.6687 36.0994 14.9006C35.3313 14.1325 34.7169 13.8253 33.7952 13.3645C33.0271 13.0572 32.1054 12.9036 30.7229 12.75C29.3404 12.75 29.0331 12.75 25.5 12.75Z" fill="white"/>
<path d="M25.5 18.8946C21.8133 18.8946 18.8946 21.8133 18.8946 25.5C18.8946 29.1867 21.8133 32.1054 25.5 32.1054C29.1867 32.1054 32.1054 29.1867 32.1054 25.5C32.1054 21.8133 29.1867 18.8946 25.5 18.8946ZM25.5 29.8012C23.1958 29.8012 21.1988 27.9578 21.1988 25.5C21.1988 23.1958 23.0422 21.1988 25.5 21.1988C27.8042 21.1988 29.8012 23.0422 29.8012 25.5C29.8012 27.8042 27.8042 29.8012 25.5 29.8012Z" fill="white"/>
<path d="M32.259 20.2771C33.1074 20.2771 33.7952 19.5894 33.7952 18.741C33.7952 17.8926 33.1074 17.2048 32.259 17.2048C31.4106 17.2048 30.7229 17.8926 30.7229 18.741C30.7229 19.5894 31.4106 20.2771 32.259 20.2771Z" fill="white"/>
</svg>
