<svg width="42" height="49" viewBox="0 0 42 49" fill="none" xmlns="http://www.w3.org/2000/svg">
<path d="M20.9239 24.4704C22.3624 24.4704 23.5943 23.9908 24.6195 23.0316C25.6431 22.074 26.1548 20.9222 26.1548 19.5764C26.1548 18.2305 25.6431 17.0779 24.6195 16.1187C23.5943 15.1611 22.3624 14.6823 20.9239 14.6823C19.4854 14.6823 18.2543 15.1611 17.2308 16.1187C16.2055 17.0779 15.6929 18.2305 15.6929 19.5764C15.6929 20.9222 16.2055 22.074 17.2308 23.0316C18.2543 23.9908 19.4854 24.4704 20.9239 24.4704ZM20.9239 48.9409C13.9057 43.3536 8.66423 38.1634 5.19958 33.3703C1.73319 28.579 0 24.1442 0 20.0658C0 13.9482 2.10372 9.07445 6.31116 5.44467C10.5169 1.81489 15.3878 0 20.9239 0C26.4601 0 31.3309 1.81489 35.5366 5.44467C39.7441 9.07445 41.8477 13.9482 41.8477 20.0658C41.8477 24.1442 40.1155 28.579 36.6508 33.3703C33.1845 38.1634 27.942 43.3536 20.9239 48.9409Z" fill="white"/>
</svg>
