<?xml version="1.0" encoding="UTF-8" standalone="no"?>
<svg
   width="73"
   height="73"
   viewBox="0 0 73 73"
   fill="none"
   version="1.1"
   id="svg1"
   sodipodi:docname="mail2.svg"
   inkscape:version="1.4.3 (0d15f75042, 2025-12-25)"
   xmlns:inkscape="http://www.inkscape.org/namespaces/inkscape"
   xmlns:sodipodi="http://sodipodi.sourceforge.net/DTD/sodipodi-0.dtd"
   xmlns="http://www.w3.org/2000/svg"
   xmlns:svg="http://www.w3.org/2000/svg">
  <defs
     id="defs1" />
  <sodipodi:namedview
     id="namedview1"
     pagecolor="#505050"
     bordercolor="#ffffff"
     borderopacity="1"
     inkscape:showpageshadow="0"
     inkscape:pageopacity="0"
     inkscape:pagecheckerboard="1"
     inkscape:deskcolor="#505050"
     inkscape:zoom="10.958904"
     inkscape:cx="36.5"
     inkscape:cy="36.5"
     inkscape:window-width="1920"
     inkscape:window-height="1011"
     inkscape:window-x="0"
     inkscape:window-y="0"
     inkscape:window-maximized="1"
     inkscape:current-layer="svg1" />
  <path
     d="M18.2778 24.1429L32.1896 34.0263L32.1943 34.0299C33.739 35.0956 34.5118 35.6288 35.3583 35.8347C36.1065 36.0168 36.8929 36.0168 37.6411 35.8347C38.4883 35.6286 39.2634 35.0939 40.8109 34.0263C40.8109 34.0263 49.7341 27.5842 54.7222 24.1429M16 45.1433V28.8576C16 26.4573 16 25.2563 16.4965 24.3396C16.9333 23.5332 17.6297 22.878 18.4869 22.4671C19.4614 22 20.738 22 23.2893 22H49.7116C52.2629 22 53.5368 22 54.5113 22.4671C55.3685 22.878 56.0672 23.5332 56.504 24.3396C57 25.2554 57 26.455 57 28.8505V45.1505C57 47.5461 57 48.7439 56.504 49.6597C56.0672 50.4662 55.3685 51.1225 54.5113 51.5333C53.5378 52 52.2645 52 49.7181 52H23.2819C20.7355 52 19.4604 52 18.4869 51.5333C17.6297 51.1225 16.9333 50.4662 16.4965 49.6597C16 48.743 16 47.5435 16 45.1433Z"
     stroke="#096B9A"
     stroke-width="2"
     stroke-linecap="round"
     stroke-linejoin="round"
     id="path1" />
</svg>
