<?xml version="1.0" encoding="UTF-8" standalone="no"?>
<svg
   width="53"
   height="47"
   viewBox="0 0 53 47"
   fill="none"
   version="1.1"
   id="svg1"
   xmlns="http://www.w3.org/2000/svg"
   xmlns:svg="http://www.w3.org/2000/svg">
  <defs
     id="defs1" />
  <path
     d="M 5.23097,36.7057 C 3.79245,36.7057 2.56143,36.2268 1.5379,35.2693 0.512635,34.31 0,33.1575 0,31.8116 V 12.6023 C 0,11.909 0.1857,11.2866 0.557098,10.7352 0.926752,10.1854 1.43852,9.74739 2.09239,9.42112 L 22.2316,0 41.9785,9.42112 c 0.6102,0.2855 1.0794,0.68268 1.4071,1.19168 0.3262,0.5107 0.5545,1.0515 0.6853,1.6224 H 36.4206 L 22.2316,5.50585 5.23097,13.3976 Z m 7.84643,9.7881 c -1.4385,0 -2.6695,-0.4788 -3.69305,-1.4364 -1.02527,-0.9592 -1.5379,-2.1118 -1.5379,-3.4576 V 19.5764 c 0,-1.3459 0.51263,-2.4985 1.5379,-3.4577 1.02355,-0.9576 2.25455,-1.4364 3.69305,-1.4364 h 34.0013 c 1.4385,0 2.6704,0.4788 3.6957,1.4364 1.0234,0.9592 1.5353,2.1118 1.5353,3.4577 v 22.0234 c 0,1.3458 -0.5119,2.4984 -1.5353,3.4576 -1.0253,0.9576 -2.2572,1.4364 -3.6957,1.4364 z M 30.0781,32.668 47.0787,24.4704 v -4.894 L 30.0781,27.774 13.0774,19.5764 v 4.894 z"
     fill="white"
     id="path1"
     style="fill:#00ff00" />
</svg>
