<svg width="53" height="47" viewBox="0 0 53 47" fill="none" xmlns="http://www.w3.org/2000/svg">
<path d="M5.23097 36.7057C3.79245 36.7057 2.56143 36.2268 1.5379 35.2693C0.512635 34.31 0 33.1575 0 31.8116V12.6023C0 11.909 0.1857 11.2866 0.557098 10.7352C0.926752 10.1854 1.43852 9.74739 2.09239 9.42112L22.2316 0L41.9785 9.42112C42.5887 9.70662 43.0579 10.1038 43.3856 10.6128C43.7118 11.1235 43.9401 11.6643 44.0709 12.2352H36.4206L22.2316 5.50585L5.23097 13.3976V36.7057ZM13.0774 46.4938C11.6389 46.4938 10.4079 46.015 9.38435 45.0574C8.35908 44.0982 7.84645 42.9456 7.84645 41.5998V19.5764C7.84645 18.2305 8.35908 17.0779 9.38435 16.1187C10.4079 15.1611 11.6389 14.6823 13.0774 14.6823H47.0787C48.5172 14.6823 49.7491 15.1611 50.7744 16.1187C51.7978 17.0779 52.3097 18.2305 52.3097 19.5764V41.5998C52.3097 42.9456 51.7978 44.0982 50.7744 45.0574C49.7491 46.015 48.5172 46.4938 47.0787 46.4938H13.0774ZM30.0781 32.668L47.0787 24.4704V19.5764L30.0781 27.774L13.0774 19.5764V24.4704L30.0781 32.668Z" fill="white"/>
</svg>
