<?xml version="1.0" encoding="UTF-8" standalone="no"?>
<!-- Generator: Adobe Illustrator 24.0.0, SVG Export Plug-In . SVG Version: 6.00 Build 0)  -->

<svg
   version="1.1"
   id="Layer_1"
   x="0px"
   y="0px"
   viewBox="0 0 23 23.3"
   style="enable-background:new 0 0 23 23.3;"
   xml:space="preserve"
   sodipodi:docname="search.svg"
   inkscape:version="1.4.3 (0d15f75042, 2025-12-25)"
   xmlns:inkscape="http://www.inkscape.org/namespaces/inkscape"
   xmlns:sodipodi="http://sodipodi.sourceforge.net/DTD/sodipodi-0.dtd"
   xmlns="http://www.w3.org/2000/svg"
   xmlns:svg="http://www.w3.org/2000/svg"><defs
   id="defs1" /><sodipodi:namedview
   id="namedview1"
   pagecolor="#505050"
   bordercolor="#ffffff"
   borderopacity="1"
   inkscape:showpageshadow="0"
   inkscape:pageopacity="0"
   inkscape:pagecheckerboard="1"
   inkscape:deskcolor="#505050"
   inkscape:zoom="34.334765"
   inkscape:cx="11.504375"
   inkscape:cy="11.65"
   inkscape:window-width="1920"
   inkscape:window-height="1011"
   inkscape:window-x="0"
   inkscape:window-y="0"
   inkscape:window-maximized="1"
   inkscape:current-layer="Layer_1" />
<style
   type="text/css"
   id="style1">
	.st0{fill:#094D26;}
</style>
<g
   id="g1"
   style="fill:#003151;fill-opacity:1">
	<path
   class="st0"
   d="M22.6,20.6l-6.2-6.2c1.1-1.5,1.7-3.4,1.7-5.4c0-5-4.1-9.1-9.1-9.1C4.1,0,0,4.1,0,9.1c0,5,4.1,9.1,9.1,9.1   c1.9,0,3.6-0.6,5-1.5l6.2,6.2c0.2,0.2,0.6,0.4,0.9,0.4c0.4,0,0.9-0.2,1.2-0.5c0.3-0.3,0.5-0.6,0.5-1C23,21.3,22.9,20.9,22.6,20.6z    M9.1,16c-3.8,0-6.9-3.1-6.9-6.9c0-3.8,3.1-6.9,6.9-6.9c3.8,0,6.9,3.1,6.9,6.9C16,12.9,12.9,16,9.1,16z"
   id="path1"
   style="fill:#003151;fill-opacity:1" />
</g>
</svg>
