<?xml version="1.0" encoding="UTF-8" standalone="no"?>
<svg
   width="36.448959"
   height="36.9245"
   viewBox="0 0 36.448959 36.9245"
   fill="none"
   version="1.1"
   id="svg1"
   xmlns="http://www.w3.org/2000/svg"
   xmlns:svg="http://www.w3.org/2000/svg">
  <defs
     id="defs1" />
  <path
     style="baseline-shift:baseline;display:inline;overflow:visible;opacity:1;vector-effect:none;fill:#ffffff;fill-opacity:1;stroke-linecap:round;stroke-linejoin:round;enable-background:accumulate;stop-color:#000000;stop-opacity:1"
     d="M 1.8457031,0.0045761 A 1.846035,1.846035 0 0 0 0,1.8502792 1.846035,1.846035 0 0 0 1.8457031,3.6959824 h 0.4960938 c 0.87462,0 1.0764574,0.068375 0.921875,0 -0.095251,-0.1395143 0.00774,0.045079 0.1660156,0.9023437 l 3.984375,21.5859369 a 1.8462196,1.8462196 0 0 0 1.8164063,1.511719 H 28.46875 c 0.8366,0 1.487029,0.06179 2.328125,-0.296875 0.615393,-0.262562 1.143874,-0.68684 1.533203,-1.220703 0.534709,-0.733446 0.621004,-1.378238 0.806641,-2.185547 a 1.8462196,1.8462196 0 0 0 0,-0.002 1.8462196,1.8462196 0 0 0 0.0039,-0.01563 l 2.898437,-12.552734 v -0.0039 C 36.323739,10.184859 36.666493,9.3324447 36.267578,8.0983261 35.991056,7.2423752 35.412549,6.5243686 34.648437,6.0670761 33.538268,5.402724 32.629628,5.5416855 31.361328,5.5416855 H 7.3574219 L 7.0605469,3.9284042 C 6.9022796,3.0711693 6.8469107,2.3967054 6.3125,1.6139511 5.9253101,1.046814 5.3866514,0.59916224 4.7578125,0.32098235 3.8897701,-0.06297306 3.2164169,0.0045761 2.3417969,0.0045761 Z M 8.0390625,9.2350449 H 31.361328 c 1.2683,0 1.625195,0.140372 1.390625,0 0,0 0.002,0 0.002,0 -0.08532,-0.2639387 -0.02778,0.1195354 -0.3125,1.3535151 v 0.0039 l -2.894531,12.542968 a 1.8462196,1.8462196 0 0 0 -0.0039,0.01563 c -0.187714,0.81346 -0.291409,0.980696 -0.197266,0.851563 0.146068,-0.06237 -0.04221,0 -0.876953,0 H 10.765625 Z M 11.076172,29.541685 c -2.0172101,0 -3.6914064,1.674185 -3.6914064,3.691407 0,2.017224 1.6741963,3.691406 3.6914064,3.691406 2.017212,0 3.691406,-1.674194 3.691406,-3.691406 0,-2.01721 -1.674194,-3.691407 -3.691406,-3.691407 z m 18.460937,0 c -2.017212,0 -3.693359,1.674197 -3.693359,3.691407 0,2.017212 1.676147,3.691406 3.693359,3.691406 2.01721,0 3.691407,-1.674194 3.691407,-3.691406 0,-2.01721 -1.674197,-3.691407 -3.691407,-3.691407 z"
     id="path1" />
</svg>
