<svg width="51" height="51" viewBox="0 0 51 51" fill="none" xmlns="http://www.w3.org/2000/svg">
<rect x="0.6375" y="0.6375" width="49.725" height="49.725" rx="24.8625" stroke="white" stroke-opacity="0.22" stroke-width="1.275"/>
<path fill-rule="evenodd" clip-rule="evenodd" d="M14.3598 34.4974C13.8596 34.3495 13.4033 34.0862 13.0293 33.7299C12.6552 33.3737 12.3745 32.9348 12.2107 32.4503C11.2748 29.9464 10.9975 19.4908 12.8 17.4268C13.3999 16.7553 14.2468 16.342 15.157 16.2763C19.9924 15.7688 34.9319 15.8365 36.6477 16.4455C37.1303 16.5984 37.5712 16.8558 37.9373 17.1986C38.3035 17.5414 38.5855 17.9607 38.7621 18.425C39.7846 21.0135 39.8193 30.4201 38.6234 32.9071C38.3062 33.5545 37.7751 34.0789 37.1156 34.3959C35.3132 35.2757 16.7515 35.2588 14.3598 34.4974ZM22.0375 29.5911L30.7031 25.1923L22.0375 20.7597V29.5911Z" fill="white"/>
</svg>
