<svg width="51" height="51" viewBox="0 0 51 51" fill="none" xmlns="http://www.w3.org/2000/svg">
<rect x="0.6375" y="0.6375" width="49.725" height="49.725" rx="24.8625" stroke="white" stroke-opacity="0.22" stroke-width="1.275"/>
<path d="M35.7 26.4489V33.4814H31.5834V26.8777C31.5834 25.2482 30.983 24.1333 29.5251 24.1333C28.4102 24.1333 27.7241 24.9052 27.4668 25.5913C27.381 25.8486 27.2952 26.1916 27.2952 26.6204V33.4814H23.1786C23.1786 33.4814 23.2644 22.3323 23.1786 21.2174H27.2952V22.9327C27.8098 22.075 28.839 20.8744 30.983 20.8744C33.6417 20.8744 35.7 22.6754 35.7 26.4489ZM18.8905 15.2998C17.5183 15.2998 16.575 16.2432 16.575 17.4439C16.575 18.6445 17.4326 19.5879 18.8048 19.5879C20.2627 19.5879 21.1204 18.6445 21.1204 17.4439C21.2061 16.1574 20.3485 15.2998 18.8905 15.2998ZM16.8322 33.4814H20.9488V21.2174H16.8322V33.4814Z" fill="white"/>
</svg>
